<svg width="84" height="84" viewBox="0 0 84 84" fill="none" xmlns="http://www.w3.org/2000/svg">
<g filter="url(#filter0_d_531_317)">
<path d="M71.132 8.49681V1.26667C71.132 0.567155 70.5655 0 69.8653 0H29.332C28.6325 0 28.0653 0.567155 28.0653 1.26667V8.54381L20.62 22.1933C20.5185 22.3794 20.4653 22.5879 20.4653 22.8V49.4H22.9987V23.1229L30.0847 10.1333H67.7315L61.1533 22.1933C61.0519 22.3794 60.9987 22.5879 60.9987 22.8V68.4H50.8653V70.9333H73.6653C77.1617 70.929 79.995 68.0963 79.9987 64.6V22.8C79.998 22.5594 79.93 22.3238 79.8014 22.1197L71.132 8.49681ZM30.5987 7.6V2.53333H68.5987V7.6H30.5987ZM77.4653 64.6C77.4653 66.6985 75.7645 68.4 73.6653 68.4H63.532V23.1229L69.9494 11.3579L77.4653 23.1686V64.6Z" fill="#5D62B5"/>
<path d="M22.2546 53.5323C21.6837 53.3128 21.0776 53.2002 20.4659 53.2002C18.1564 53.2027 16.1402 54.7644 15.5606 57.0002H15.3992C12.6012 57.0002 10.3326 59.2688 10.3326 62.0669H9.06589C8.521 62.0675 8.03734 62.4163 7.8654 62.9334L4.0654 74.3334C3.93675 74.7193 4.00169 75.1436 4.23919 75.4739C4.47731 75.8041 4.85892 76.0002 5.26589 76.0002H48.3326C48.7395 76.0002 49.1218 75.8041 49.3599 75.4739C49.5974 75.1436 49.6623 74.7193 49.5337 74.3334L45.7337 62.9334C45.5617 62.4163 45.0781 62.0675 44.5326 62.0669H43.2659C43.2659 59.2688 40.9979 57.0002 38.1992 57.0002H38.0384C37.4589 54.7644 35.4426 53.2027 33.1326 53.2002C32.5215 53.2002 31.9154 53.3128 31.3445 53.5323C30.5077 51.7814 28.7394 50.6675 26.7992 50.6675C24.859 50.6675 23.0914 51.7814 22.2546 53.5323V53.5323ZM43.6197 64.6002L46.5748 73.4669H7.02425L9.9794 64.6002H43.6197ZM29.306 55.561C29.3394 56.0471 29.6486 56.4701 30.1007 56.6507C30.5528 56.8313 31.068 56.7367 31.4268 56.4077C32.1628 55.7212 33.2365 55.5387 34.158 55.9426C35.0796 56.3471 35.6727 57.2606 35.6659 58.2669C35.6659 58.9664 36.233 59.5335 36.9326 59.5335H38.1992C39.5989 59.5335 40.7326 60.6678 40.7326 62.0669H12.8659C12.8659 60.6678 14.0002 59.5335 15.3992 59.5335H16.6659C17.366 59.5335 17.9326 58.9664 17.9326 58.2669C17.9276 57.2618 18.5201 56.3495 19.4404 55.9451C20.3607 55.5412 21.4338 55.723 22.1698 56.4077C22.5286 56.7367 23.0438 56.8313 23.4959 56.6507C23.948 56.4701 24.2566 56.0471 24.29 55.561C24.3741 54.2374 25.4726 53.2064 26.7992 53.2064C28.1259 53.2064 29.2243 54.2374 29.3091 55.561H29.306Z" fill="#5D62B5"/>
<path d="M35.6655 30.3999H38.1989V32.9332H35.6655V30.3999Z" fill="#5D62B5"/>
<path d="M48.332 30.3999H50.8654V32.9332H48.332V30.3999Z" fill="#5D62B5"/>
<path d="M54.6326 15.5082L49.1268 20.2668H37.9903L32.0026 15.4779C31.4986 15.074 30.7719 15.1148 30.3154 15.5713C28.8273 17.0569 28.0146 19.0886 28.0684 21.1902C28.1222 23.2925 29.037 25.2797 30.5987 26.6874V40.5335C30.5987 47.5292 36.2702 53.2002 43.2654 53.2002C50.2611 53.2002 55.932 47.5292 55.932 40.5335V26.8408C57.4424 25.443 58.3466 23.5108 58.453 21.4562C58.5817 19.3082 57.8376 17.1985 56.391 15.6053C55.9271 15.1043 55.149 15.061 54.6326 15.5082V15.5082ZM30.608 21.2867C30.5498 20.2149 30.8275 19.1523 31.4033 18.2462L35.3085 21.3715L32.0899 24.5888C31.211 23.7044 30.684 22.5305 30.608 21.2867ZM43.2654 50.6668C41.8923 50.6668 40.732 49.7966 40.732 48.7668C40.732 47.737 41.8923 46.8668 43.2654 46.8668C44.6384 46.8668 45.7987 47.737 45.7987 48.7668C45.7987 49.7966 44.6384 50.6668 43.2654 50.6668V50.6668ZM53.3987 40.5335C53.395 44.177 51.435 47.5373 48.2665 49.3358C48.3023 49.1478 48.3246 48.9579 48.332 48.7668C48.1434 46.1506 45.884 44.1733 43.2654 44.3335C40.6473 44.1733 38.3879 46.1506 38.1987 48.7668C38.2067 48.9579 38.229 49.1478 38.2649 49.3358C35.0957 47.5373 33.1363 44.177 33.132 40.5335V27.1246L37.4565 22.8002H49.0748L51.6082 25.3335H49.5987C46.1011 25.3335 43.2654 28.1693 43.2654 31.6668C43.2654 35.1644 46.1011 38.0002 49.5987 38.0002H53.3987V40.5335ZM53.3987 35.4668H49.5987C47.5002 35.4668 45.7987 33.7654 45.7987 31.6668C45.7987 29.5683 47.5002 27.8668 49.5987 27.8668H53.3987V35.4668ZM54.5126 24.6556L51.4585 21.6021L55.2498 18.3235C55.7508 19.2377 55.9846 20.2749 55.9234 21.3158C55.8547 22.559 55.3556 23.7396 54.5126 24.6556V24.6556Z" fill="#5D62B5"/>
<path d="M73.6654 55.7334H67.3321C66.6326 55.7334 66.0654 56.3006 66.0654 57.0001V62.0667C66.0654 62.7662 66.6326 63.3334 67.3321 63.3334H73.6654C74.3656 63.3334 74.9321 62.7662 74.9321 62.0667V57.0001C74.9321 56.3006 74.3656 55.7334 73.6654 55.7334ZM72.3988 60.8001H68.5988V58.2667H72.3988V60.8001Z" fill="#5D62B5"/>
<path d="M66.0654 50.6665H72.3988V53.1998H66.0654V50.6665Z" fill="#5D62B5"/>
<path d="M66.0654 45.6001H74.9321V48.1334H66.0654V45.6001Z" fill="#5D62B5"/>
<path d="M50.8652 63.3335H58.4652V65.8668H50.8652V63.3335Z" fill="#5D62B5"/>
<path d="M50.8652 58.2666H58.4652V60.7999H50.8652V58.2666Z" fill="#5D62B5"/>
<path d="M66.0654 40.5332H74.9321V43.0665H66.0654V40.5332Z" fill="#5D62B5"/>
<path d="M66.0654 35.4668H69.8654V38.0001H66.0654V35.4668Z" fill="#5D62B5"/>
<path d="M72.3989 35.4668H74.9323V38.0001H72.3989V35.4668Z" fill="#5D62B5"/>
<path d="M66.0654 22.7998H74.9321V25.3331H66.0654V22.7998Z" fill="#5D62B5"/>
<path d="M66.0654 27.8667H74.9321V30.4H66.0654V27.8667Z" fill="#5D62B5"/>
</g>
<defs>
<filter id="filter0_d_531_317" x="0" y="0" width="84" height="84" filterUnits="userSpaceOnUse" color-interpolation-filters="sRGB">
<feFlood flood-opacity="0" result="BackgroundImageFix"/>
<feColorMatrix in="SourceAlpha" type="matrix" values="0 0 0 0 0 0 0 0 0 0 0 0 0 0 0 0 0 0 127 0" result="hardAlpha"/>
<feOffset dy="4"/>
<feGaussianBlur stdDeviation="2"/>
<feComposite in2="hardAlpha" operator="out"/>
<feColorMatrix type="matrix" values="0 0 0 0 0 0 0 0 0 0 0 0 0 0 0 0 0 0 0.25 0"/>
<feBlend mode="normal" in2="BackgroundImageFix" result="effect1_dropShadow_531_317"/>
<feBlend mode="normal" in="SourceGraphic" in2="effect1_dropShadow_531_317" result="shape"/>
</filter>
</defs>
</svg>
